# Alias OBJ Model File
# Exported from SketchUp, (c) 2000-2012 Trimble Navigation Limited
# File units = millimeters

mtllib josetsutyoukoku.mtl

g Mesh1 Component_25 Model

usemtl _auto_4
v 12766.5 1800 -21227.6
vt 344.41 70.8655
vn 0.384881 2.02443e-06 -0.922966
v 14155.8 1800 -20648.3
vt 285.151 70.8655
v 14155.8 1440 -20648.3
vt 285.151 56.6922
v 14155.8 1080 -20648.3
vt 285.151 42.519
v 14155.8 720 -20648.3
vt 285.151 28.3458
v 14155.8 1.11107e-12 -20648.3
vt 285.151 -0.0006738
v 12494.5 1.11107e-12 -21341.1
vt 356.017 -0.0006738
v 12494.5 1080 -21341.1
vt 356.017 42.519
v 12494.5 1440 -21341.1
vt 356.017 56.6922
v 12494.5 1800 -21341.1
vt 356.017 70.8655
v 12630.5 1800 -21284.3
vt 350.213 70.8655
f 1/1/1 2/2/1 3/3/1 4/4/1 5/5/1 6/6/1 7/7/1 8/8/1 9/9/1 10/10/1 11/11/1 

v 14086.5 1800 -20482.2
vt -137.81 410.402
vn 2.69455e-17 1 -1.00329e-17
vt -135.083 416.943
vt -189.778 439.751
vt -195.134 441.985
vt -200.49 444.218
v 12217.3 1800 -20676.5
vt -211.4 418.055
v 12148.1 1800 -20510.4
vt -214.127 411.514
v 12168.2 1800 -20510.1
vt -213.334 411.502
v 12208.5 1800 -20509.5
vt -211.747 411.477
v 12228.7 1800 -20509.1
vt -210.954 411.465
v 12248.8 1800 -20508.8
vt -210.161 411.453
v 12364.9 1800 -20484.9
vt -205.59 410.512
v 12393.9 1800 -20479
vt -204.447 410.277
v 12452.7 1800 -20397.6
vt -202.135 407.072
v 12467.4 1800 -20377.2
vt -201.557 406.271
v 12556.2 1800 -20361.8
vt -198.059 405.663
v 12578.4 1800 -20357.9
vt -197.184 405.511
v 12693.8 1800 -20363.8
vt -192.641 405.741
v 12722.7 1800 -20365.2
vt -191.505 405.799
v 12927.6 1800 -20263.8
vt -183.436 401.807
v 12991.6 1800 -20217.5
vt -180.918 399.983
v 13007.6 1800 -20205.9
vt -180.289 399.527
v 13178.6 1800 -20198.2
vt -173.555 399.222
v 13221.4 1800 -20196.2
vt -171.872 399.146
v 13228.3 1800 -20128.4
vt -171.599 396.475
v 13230 1800 -20111.4
vt -171.53 395.807
v 13384.7 1800 -20041.6
vt -165.439 393.057
v 13423.4 1800 -20024.1
vt -163.916 392.37
v 13520.2 1800 -20006.7
vt -160.105 391.684
v 13544.4 1800 -20002.4
vt -159.152 391.513
v 13599.3 1800 -19925.5
vt -156.992 388.487
v 13613 1800 -19906.3
vt -156.452 387.731
v 13770.1 1800 -19835.3
vt -150.267 384.937
v 13809.4 1800 -19817.6
vt -148.72 384.239
f 12/12/2 2/13/2 1/14/2 11/15/2 10/16/2 13/17/2 14/18/2 15/19/2 16/20/2 17/21/2 18/22/2 19/23/2 20/24/2 21/25/2 22/26/2 23/27/2 24/28/2 25/29/2 26/30/2 27/31/2 28/32/2 29/33/2 30/34/2 31/35/2 32/36/2 33/37/2 34/38/2 35/39/2 36/40/2 37/41/2 38/42/2 39/43/2 40/44/2 41/45/2 

vt 325.749 70.8661
vn 0.922969 -5.25215e-17 0.384874
vt 297.402 70.8661
v 13809.4 1440 -19817.6
vt 297.402 56.6929
v 13809.4 1080 -19817.6
vt 297.402 42.5197
v 13809.4 1.11107e-12 -19817.6
vt 297.402 -1.49764e-14
v 13948 1.11107e-12 -20149.9
vt 311.575 -1.49764e-14
v 14017.2 1.11107e-12 -20316
vt 318.662 -1.49764e-14
vt 332.836 -1.49764e-14
vt 332.836 28.3465
vt 332.836 42.5197
vt 332.836 56.6929
vt 332.836 70.8661
f 12/46/3 41/47/3 42/48/3 43/49/3 44/50/3 45/51/3 46/52/3 6/53/3 5/54/3 4/55/3 3/56/3 2/57/3 

vt -295.378 70.8661
vn -0.411567 -5.68549e-17 0.911379
vt -302.165 70.8661
v 13613 1440 -19906.3
vt -302.165 56.6929
v 13613 1080 -19906.3
vt -302.165 42.5197
v 13613 1.11107e-12 -19906.3
vt -302.165 -1.64299e-14
v 13691.6 1.11107e-12 -19870.8
vt -298.771 -1.64299e-14
v 13730.8 1.11107e-12 -19853.1
vt -297.074 -1.64299e-14
v 13770.1 1.11107e-12 -19835.3
vt -295.378 -1.64299e-14
vt -293.681 -1.64299e-14
vt -293.681 42.5197
vt -293.681 56.6929
vt -293.681 70.8661
f 40/58/4 39/59/4 47/60/4 48/61/4 49/62/4 50/63/4 51/64/4 52/65/4 44/66/4 43/67/4 42/68/4 41/69/4 

vt -407.399 70.8661
vn -0.813876 8.89207e-17 0.581039
vt -411.116 70.8661
v 13544.4 1440 -20002.4
vt -411.116 56.6929
v 13544.4 1080 -20002.4
vt -411.116 42.5197
v 13544.4 1.11107e-12 -20002.4
vt -411.116 8.71014e-15
v 13571.9 1.11107e-12 -19963.9
vt -409.258 8.71014e-15
v 13585.6 1.11107e-12 -19944.7
vt -408.328 8.71014e-15
v 13599.3 1.11107e-12 -19925.5
vt -407.399 8.71014e-15
vt -406.47 8.71014e-15
vt -406.47 42.5197
vt -406.47 56.6929
vt -406.47 70.8661
f 38/70/5 37/71/5 53/72/5 54/73/5 55/74/5 56/75/5 57/76/5 58/77/5 49/78/5 48/79/5 47/80/5 39/81/5 

vt -226.92 70.8661
vn -0.177039 1.19244e-15 0.984204
vt -230.792 70.8661
v 13423.4 1440 -20024.1
vt -230.792 56.6929
v 13423.4 1080 -20024.1
vt -230.792 42.5197
v 13423.4 1.11107e-12 -20024.1
vt -230.792 4.25882e-13
v 13447.6 1.11107e-12 -20019.8
vt -229.824 4.25882e-13
v 13471.8 1.11107e-12 -20015.4
vt -228.856 4.25882e-13
v 13496 1.11107e-12 -20011.1
vt -227.888 4.25882e-13
v 13520.2 1.11107e-12 -20006.7
vt -226.92 4.25882e-13
vt -225.952 4.25882e-13
vt -225.952 42.5197
vt -225.952 56.6929
vt -225.952 70.8661
f 36/82/6 35/83/6 59/84/6 60/85/6 61/86/6 62/87/6 63/88/6 64/89/6 65/90/6 55/91/6 54/92/6 53/93/6 37/94/6 

vt -312.521 70.8661
vn -0.411485 2.37456e-15 0.911416
vt -319.204 70.8661
v 13230 1440 -20111.4
vt -319.204 56.6929
v 13230 1080 -20111.4
vt -319.204 42.5197
v 13230 5.55955e-13 -20111.4
vt -319.204 6.67155e-13
v 13307.4 1.11107e-12 -20076.5
vt -315.863 6.8901e-13
v 13346.1 1.11107e-12 -20059
vt -314.192 6.8901e-13
v 13384.7 1.11107e-12 -20041.6
vt -312.521 6.8901e-13
vt -310.85 6.8901e-13
vt -310.85 42.5197
vt -310.85 56.6929
vt -310.85 70.8661
f 34/95/7 33/96/7 66/97/7 67/98/7 68/99/7 69/100/7 70/101/7 71/102/7 61/103/7 60/104/7 59/105/7 35/106/7 

vt -411.884 70.8661
vn -0.994805 2.37786e-17 0.101799
vt -414.569 70.8661
v 13221.4 1440 -20196.2
vt -414.569 56.6929
v 13221.4 1080 -20196.2
vt -414.569 42.5197
v 13221.4 1.11107e-12 -20196.2
vt -414.569 -3.09945e-15
v 13224.8 5.55955e-13 -20162.3
vt -413.226 -2.49542e-14
v 13226.6 5.55955e-13 -20145.4
vt -412.555 -2.49542e-14
v 13228.3 5.55955e-13 -20128.4
vt -411.884 -2.49542e-14
vt -411.212 -2.49542e-14
vt -411.212 42.5197
vt -411.212 56.6929
vt -411.212 70.8661
f 32/107/8 31/108/8 72/109/8 73/110/8 74/111/8 75/112/8 76/113/8 77/114/8 68/115/8 67/116/8 66/117/8 33/118/8 

vt -191.41 70.8661
vn -0.0451687 -8.93305e-16 0.998979
vt -198.151 70.8661
v 13007.6 1440 -20205.9
vt -198.151 56.6929
v 13007.6 1080 -20205.9
vt -198.151 42.5197
v 13007.6 1.11107e-12 -20205.9
vt -198.151 -3.4926e-13
v 13093.1 1.11107e-12 -20202
vt -194.781 -3.4926e-13
v 13135.8 1.11107e-12 -20200.1
vt -193.095 -3.4926e-13
v 13178.6 1.11107e-12 -20198.2
vt -191.41 -3.4926e-13
vt -189.725 -3.4926e-13
vt -189.725 42.5197
vt -189.725 56.6929
vt -189.725 70.8661
f 30/119/9 29/120/9 78/121/9 79/122/9 80/123/9 81/124/9 82/125/9 83/126/9 74/127/9 73/128/9 72/129/9 31/130/9 

vt -381.195 70.8661
vn -0.586764 1.71947e-16 0.809758
vt -384.305 70.8661
v 12927.6 1440 -20263.8
vt -384.305 56.6929
v 12927.6 1080 -20263.8
vt -384.305 42.5197
v 12927.6 1.11107e-12 -20263.8
vt -384.305 3.74385e-14
v 12959.6 1.11107e-12 -20240.7
vt -382.75 3.74385e-14
v 12975.6 1.11107e-12 -20229.1
vt -381.973 3.74385e-14
v 12991.6 1.11107e-12 -20217.5
vt -381.195 3.74385e-14
vt -380.418 3.74385e-14
vt -380.418 42.5197
vt -380.418 56.6929
vt -380.418 70.8661
f 28/131/10 27/132/10 84/133/10 85/134/10 86/135/10 87/136/10 88/137/10 89/138/10 80/139/10 79/140/10 78/141/10 29/142/10 

vt -342.574 70.8661
vn -0.443385 5.92907e-17 0.896331
vt -351.577 70.8661
v 12722.7 1440 -20365.2
vt -351.577 56.6929
v 12722.7 1080 -20365.2
vt -351.577 42.5197
v 12722.7 1.11107e-12 -20365.2
vt -351.577 1.65314e-14
v 12804.7 1.11107e-12 -20324.7
vt -347.976 1.65314e-14
v 12845.6 1.11107e-12 -20304.4
vt -346.175 1.65314e-14
v 12886.6 1.11107e-12 -20284.1
vt -344.375 1.65314e-14
vt -342.574 1.65314e-14
vt -342.574 42.5197
vt -342.574 56.6929
f 27/143/11 26/144/11 90/145/11 91/146/11 92/147/11 93/148/11 94/149/11 95/150/11 86/151/11 85/152/11 84/153/11 

vt -171.881 70.8661
vn 0.0505592 -6.1077e-16 0.998721
vt -176.43 70.8661
v 12578.4 1440 -20357.9
vt -176.43 56.6929
v 12578.4 1080 -20357.9
vt -176.43 42.5197
v 12578.4 1.11107e-12 -20357.9
vt -176.43 -2.53447e-13
v 12636.1 1.11107e-12 -20360.8
vt -174.155 -2.53447e-13
v 12665 1.11107e-12 -20362.3
vt -173.018 -2.53447e-13
v 12693.8 1.11107e-12 -20363.8
vt -171.881 -2.53447e-13
vt -170.743 -2.53447e-13
vt -170.743 42.5197
vt -170.743 56.6929
vt -170.743 70.8661
f 25/154/12 24/155/12 96/156/12 97/157/12 98/158/12 99/159/12 100/160/12 101/161/12 92/162/12 91/163/12 90/164/12 26/165/12 

vt -264.582 70.8661
vn -0.171194 -3.19565e-16 0.985237
vt -268.132 70.8661
v 12467.4 1440 -20377.2
vt -268.132 56.6929
v 12467.4 1080 -20377.2
vt -268.132 42.5197
v 12467.4 1.11107e-12 -20377.2
vt -268.132 -1.16887e-13
v 12511.8 1.11107e-12 -20369.5
vt -266.357 -1.16887e-13
v 12534 1.11107e-12 -20365.6
vt -265.47 -1.16887e-13
v 12556.2 1.11107e-12 -20361.8
vt -264.582 -1.16887e-13
vt -263.695 -1.16887e-13
vt -263.695 42.5197
vt -263.695 56.6929
vt -263.695 70.8661
f 23/166/13 22/167/13 102/168/13 103/169/13 104/170/13 105/171/13 106/172/13 107/173/13 98/174/13 97/175/13 96/176/13 24/177/13 

vt -448.385 70.8661
vn -0.810932 -5.84964e-16 0.58514
vt -452.337 70.8661
v 12393.9 1440 -20479
vt -452.337 56.6929
v 12393.9 1080 -20479
vt -452.337 42.5197
v 12393.9 1.11107e-12 -20479
vt -452.337 -4.34491e-14
v 12423.3 1.11107e-12 -20438.3
vt -450.361 -4.34491e-14
v 12438 1.11107e-12 -20417.9
vt -449.373 -4.34491e-14
v 12452.7 1.11107e-12 -20397.6
vt -448.385 -4.34491e-14
vt -447.397 -4.34491e-14
vt -447.397 42.5197
vt -447.397 56.6929
vt -447.397 70.8661
f 21/178/14 20/179/14 108/180/14 109/181/14 110/182/14 111/183/14 112/184/14 113/185/14 104/186/14 103/187/14 102/188/14 22/189/14 

vt -284.147 70.8661
vn -0.201654 2.29549e-16 0.979457
vt -288.814 70.8661
v 12248.8 1440 -20508.8
vt -288.814 56.6929
v 12248.8 1080 -20508.8
vt -288.814 42.5197
v 12248.8 1.11107e-12 -20508.8
vt -288.814 8.27803e-14
v 12306.9 1.11107e-12 -20496.9
vt -286.481 8.27803e-14
v 12335.9 1.11107e-12 -20490.9
vt -285.314 8.27803e-14
v 12364.9 1.11107e-12 -20484.9
vt -284.147 8.27803e-14
vt -282.981 8.27803e-14
vt -282.981 42.5197
vt -282.981 56.6929
vt -282.981 70.8661
f 19/190/15 18/191/15 114/192/15 115/193/15 116/194/15 117/195/15 118/196/15 119/197/15 110/198/15 109/199/15 108/200/15 20/201/15 

vt -218.062 70.8661
vn -0.0154065 -5.84179e-16 0.999881
vt -219.649 70.8661
vt -220.442 70.8661
v 12148.1 1440 -20510.4
vt -220.442 56.6929
v 12148.1 1080 -20510.4
vt -220.442 42.5197
v 12148.1 1.11107e-12 -20510.4
vt -220.442 -2.38442e-13
v 12188.4 1.11107e-12 -20509.8
vt -218.855 -2.38442e-13
v 12208.5 1.11107e-12 -20509.5
vt -218.062 -2.38442e-13
v 12228.7 1.11107e-12 -20509.1
vt -217.268 -2.38442e-13
vt -216.475 -2.38442e-13
vt -216.475 42.5197
vt -216.475 56.6929
vt -216.475 70.8661
vt -217.268 70.8661
f 16/202/16 15/203/16 14/204/16 120/205/16 121/206/16 122/207/16 123/208/16 124/209/16 125/210/16 116/211/16 115/212/16 114/213/16 18/214/16 17/215/16 

vt -304.489 70.8661
vn -0.922969 -1.33447e-16 -0.384874
vt -332.836 70.8661
vt -332.836 56.6929
vt -332.836 42.5197
vt -332.836 4.75091e-14
v 12355.9 1.11107e-12 -21008.8
vt -318.663 4.75091e-14
v 12286.6 1.11107e-12 -20842.7
vt -311.576 4.75091e-14
v 12217.3 1.11107e-12 -20676.5
vt -304.489 4.75091e-14
vt -297.403 4.75091e-14
vt -297.403 42.5197
vt -297.403 56.6929
vt -297.403 70.8661
f 13/216/17 10/217/17 9/218/17 8/219/17 7/220/17 126/221/17 127/222/17 128/223/17 122/224/17 121/225/17 120/226/17 14/227/17 

vt 205.945 431.137
vn -5.7139e-18 -1 -6.15863e-17
vt 200.49 444.218
vt 135.083 416.943
vt 140.538 403.862
vt 143.265 397.321
vt 148.72 384.239
vt 150.267 384.937
vt 151.813 385.636
vt 153.36 386.334
vt 156.452 387.731
vt 156.992 388.487
vt 157.532 389.243
vt 158.072 390
vt 159.152 391.513
vt 160.105 391.684
vt 161.058 391.855
vt 162.964 392.198
vt 163.916 392.37
vt 165.439 393.057
vt 166.962 393.745
vt 168.485 394.432
vt 171.53 395.807
vt 171.599 396.475
vt 171.667 397.143
vt 171.735 397.81
vt 171.872 399.146
vt 173.555 399.222
vt 175.239 399.298
vt 176.922 399.374
vt 180.289 399.527
vt 180.918 399.983
vt 181.547 400.439
vt 182.177 400.895
vt 183.436 401.807
vt 185.05 402.605
vt 186.664 403.404
vt 188.277 404.202
vt 191.505 405.799
vt 192.641 405.741
vt 194.913 405.626
vt 197.184 405.511
vt 198.059 405.663
vt 198.933 405.815
vt 199.808 405.967
vt 201.557 406.271
vt 202.135 407.072
vt 202.713 407.873
vt 203.291 408.674
vt 204.447 410.277
vt 205.59 410.512
vt 206.732 410.747
vt 207.875 410.982
vt 210.161 411.453
vt 210.954 411.465
vt 211.747 411.477
vt 212.541 411.49
vt 214.127 411.514
vt 211.4 418.055
vt 208.672 424.596
f 126/228/18 7/229/18 6/230/18 46/231/18 45/232/18 44/233/18 52/234/18 51/235/18 50/236/18 49/237/18 58/238/18 57/239/18 56/240/18 55/241/18 65/242/18 64/243/18 62/244/18 61/245/18 71/246/18 70/247/18 69/248/18 68/249/18 77/250/18 76/251/18 75/252/18 74/253/18 83/254/18 82/255/18 81/256/18 80/257/18 89/258/18 88/259/18 87/260/18 86/261/18 95/262/18 94/263/18 93/264/18 92/265/18 101/266/18 99/267/18 98/268/18 107/269/18 106/270/18 105/271/18 104/272/18 113/273/18 112/274/18 111/275/18 110/276/18 119/277/18 118/278/18 117/279/18 116/280/18 125/281/18 124/282/18 123/283/18 122/284/18 128/285/18 127/286/18 

